<svg xmlns="http://www.w3.org/2000/svg" viewBox="0 0 100 100">
  <!-- Rounded square background -->
  <rect x="0" y="0" width="100" height="100" rx="20" ry="20" fill="#4E3083"/>
  
  <!-- Star icon -->
  <path d="M38.548,46.201c3.831-0.378,7.275-3.821,7.653-7.653l3.112-31.582c0.378-3.831,0.995-3.831,1.373,0l3.112,31.582  
    c0.378,3.831,3.821,7.275,7.653,7.653l31.582,3.112c3.831,0.378,3.831,0.995,0,1.373l-31.582,3.112  
    c-3.831,0.378-7.275,3.821-7.653,7.653l-3.112,31.582c-0.378,3.831-0.995,3.831-1.373,0l-3.112-31.582  
    c-0.378-3.831-3.821-7.275-7.653-7.653L6.966,50.686c-3.831-0.378-3.831-0.995,0-1.373L38.548,46.201z" 
    fill="#FFFFFF"/>
</svg>